<?xml version="1.0" standalone="no"?>
<!DOCTYPE svg PUBLIC "-//W3C//DTD SVG 20010904//EN"
 "http://www.w3.org/TR/2001/REC-SVG-20010904/DTD/svg10.dtd">
<svg version="1.0" xmlns="http://www.w3.org/2000/svg"
 width="208.000000pt" height="208.000000pt" viewBox="0 0 208.000000 208.000000"
 preserveAspectRatio="xMidYMid meet">
<metadata>
Created by potrace 1.11, written by Peter Selinger 2001-2013
</metadata>
<g transform="translate(0.000000,208.000000) scale(0.100000,-0.100000)"
fill="#000000" stroke="none">
<path d="M998 2075 c-2 -1 -35 -5 -74 -8 -39 -4 -77 -9 -85 -11 -8 -3 -25 -7
-39 -10 -51 -8 -158 -49 -241 -92 -243 -126 -455 -388 -516 -639 -54 -226 -44
-444 30 -636 121 -317 379 -550 699 -633 194 -51 341 -51 533 -1 451 118 768
531 766 999 0 55 -2 110 -4 121 -3 11 -8 40 -12 65 -22 142 -120 353 -212 462
-182 214 -417 343 -678 374 -52 6 -164 12 -167 9z"/>
</g>
</svg>
