<?xml version="1.0" encoding="utf-8"?>
<!-- Svg Vector Icons : http://www.onlinewebfonts.com/icon -->
<!DOCTYPE svg PUBLIC "-//W3C//DTD SVG 1.1//EN" "http://www.w3.org/Graphics/SVG/1.1/DTD/svg11.dtd">
<svg version="1.1" xmlns="http://www.w3.org/2000/svg" xmlns:xlink="http://www.w3.org/1999/xlink" x="0px" y="0px" viewBox="0 0 1000 1000" enable-background="new 0 0 1000 1000" xml:space="preserve">
<metadata> Svg Vector Icons : http://www.onlinewebfonts.com/icon </metadata>
<g><path d="M826.7,908.3H50.8C26.3,908.3,10,892,10,867.5v-735c0-24.5,16.3-40.8,40.8-40.8h285.8c24.5,0,40.8,16.3,40.8,40.8v40.8h449.2c24.5,0,40.8,16.3,40.8,40.8v163.3c0,24.5-16.3,40.8-40.8,40.8c-24.5,0-40.8-16.3-40.8-40.8V255H336.7c-24.5,0-40.8-16.3-40.8-40.8v-40.8H91.7v653.3h735c24.5,0,40.8,16.3,40.8,40.8S851.2,908.3,826.7,908.3z"/><path d="M826.7,908.3H50.8c-12.2,0-24.5-4.1-32.7-16.3C10,879.8,10,871.6,10,859.3l122.5-490c4.1-20.4,20.4-32.7,40.8-32.7h775.8c12.3,0,24.5,4.1,32.7,16.3c8.2,12.3,8.2,20.4,8.2,32.7l-122.5,490C863.4,896.1,847.1,908.3,826.7,908.3z M103.9,826.7H794l102.1-408.3H206L103.9,826.7z"/></g>
</svg>